<?xml version="1.0" standalone="no"?>
<!DOCTYPE svg PUBLIC "-//W3C//DTD SVG 20010904//EN"
 "http://www.w3.org/TR/2001/REC-SVG-20010904/DTD/svg10.dtd">
<svg version="1.0" xmlns="http://www.w3.org/2000/svg"
 width="500.000000pt" height="500.000000pt" viewBox="0 0 500.000000 500.000000"
 preserveAspectRatio="xMidYMid meet">
<metadata>
Created by potrace 1.11, written by Peter Selinger 2001-2013
</metadata>
<g transform="translate(0.000000,500.000000) scale(0.100000,-0.100000)"
fill="#000000" stroke="none">
<path d="M2200 4695 c-595 -82 -1137 -387 -1495 -840 -43 -55 -92 -114 -108
-132 l-29 -31 -52 58 c-127 146 -216 191 -272 135 -38 -38 -21 -91 40 -122 42
-22 196 -173 196 -192 0 -21 -33 -109 -69 -187 -215 -456 -262 -1031 -127
-1525 146 -534 478 -990 946 -1304 182 -122 481 -253 706 -309 221 -56 537
-79 774 -57 354 34 709 154 1006 340 289 182 563 459 737 746 53 88 56 91 131
127 172 84 245 226 211 406 -8 39 -24 94 -36 122 l-22 52 18 106 c23 139 31
437 16 582 -7 62 -21 158 -33 214 -11 55 -20 109 -20 119 1 9 2 29 3 44 1 16
-6 33 -18 42 -10 9 -34 59 -52 111 -156 447 -490 870 -896 1136 -293 191 -624
313 -978 359 -136 18 -445 18 -577 0z"/>
</g>
</svg>
